HIERARCHY
ROOT RootJoint
{
    OFFSET   0.000000   0.000000   0.000000
    CHANNELS 6 Xposition Yposition Zposition Xrotation Yrotation Zrotation
    JOINT pelvis_lowerback
    {
        OFFSET   0.000000   0.093605   0.000000
        CHANNELS 3 Xrotation Yrotation Zrotation
        JOINT lowerback_torso
        {
            OFFSET   0.000000   0.100000   0.000000
            CHANNELS 3 Xrotation Yrotation Zrotation
            JOINT torso_head
            {
                OFFSET   0.000000   0.282350   0.000000
                CHANNELS 3 Xrotation Yrotation Zrotation
                End Site
                {
                    OFFSET   0.000000   0.192650   0.000000
                }
            }
            JOINT rTorso_Clavicle
            {
                OFFSET  -0.001000   0.157500   0.000000
                CHANNELS 3 Xrotation Yrotation Zrotation
                JOINT rShoulder
                {
                    OFFSET  -0.117647   0.000000   0.000000
                    CHANNELS 3 Xrotation Yrotation Zrotation
                    JOINT rElbow
                    {
                        OFFSET  -0.245000   0.000000   0.000000
                        CHANNELS 3 Xrotation Yrotation Zrotation
                        JOINT rWrist
                        {
                            OFFSET  -0.240000   0.000000   0.000000
                            CHANNELS 3 Xrotation Yrotation Zrotation
                            End Site
                            {
                                OFFSET  -0.116353  -0.002500   0.000000
                            }
                        }
                    }
                }
            }
            JOINT lTorso_Clavicle
            {
                OFFSET   0.001000   0.157500   0.000000
                CHANNELS 3 Xrotation Yrotation Zrotation
                JOINT lShoulder
                {
                    OFFSET   0.117647   0.000000   0.000000
                    CHANNELS 3 Xrotation Yrotation Zrotation
                    JOINT lElbow
                    {
                        OFFSET   0.245000   0.000000   0.000000
                        CHANNELS 3 Xrotation Yrotation Zrotation
                        JOINT lWrist
                        {
                            OFFSET   0.240000   0.000000   0.000000
                            CHANNELS 3 Xrotation Yrotation Zrotation
                            End Site
                            {
                                OFFSET   0.116353  -0.002500   0.000000
                            }
                        }
                    }
                }
            }
        }
    }
    JOINT rHip
    {
        OFFSET  -0.100000  -0.051395   0.000000
        CHANNELS 3 Xrotation Yrotation Zrotation
        JOINT rKnee
        {
            OFFSET   0.000000  -0.410000   0.000000
            CHANNELS 3 Xrotation Yrotation Zrotation
            JOINT rAnkle
            {
                OFFSET   0.000000  -0.390000   0.000000
                CHANNELS 3 Xrotation Yrotation Zrotation
                JOINT rToeJoint
                {
                    OFFSET   0.000000  -0.050000   0.130000
                    CHANNELS 3 Xrotation Yrotation Zrotation
                    End Site
                    {
                        OFFSET  -0.010000   0.002000   0.060000
                    }
                }
            }
        }
    }
    JOINT lHip
    {
        OFFSET   0.100000  -0.051395   0.000000
        CHANNELS 3 Xrotation Yrotation Zrotation
        JOINT lKnee
        {
            OFFSET   0.000000  -0.410000   0.000000
            CHANNELS 3 Xrotation Yrotation Zrotation
            JOINT lAnkle
            {
                OFFSET   0.000000  -0.390000   0.000000
                CHANNELS 3 Xrotation Yrotation Zrotation
                JOINT lToeJoint
                {
                    OFFSET   0.000000  -0.050000   0.130000
                    CHANNELS 3 Xrotation Yrotation Zrotation
                    End Site
                    {
                        OFFSET   0.010000   0.002000   0.060000
                    }
                }
            }
        }
    }
}
MOTION
Frames: 12
Frame Time:   0.008333
 -2.347062   0.906670   4.541196   2.057119  10.358889   0.737235   2.540911  -0.684244  -1.415032  -1.831515  -1.662541   0.526721  -2.178851   0.699324  -0.486403   4.119091  -4.042311   2.769297  16.348621  15.342810  56.585531  -0.002411  51.848290   0.003565   5.067792   6.297613 -26.855586   4.343321   0.047738  -1.945122  15.758451 -16.803850 -57.663357   0.000302 -48.054331   0.000252   5.694310  -7.990444  26.039539 -10.609014   0.660939  -6.127561  21.794185  -0.000996  -0.000629 -12.708965  -3.732768   2.815764  -0.318512   0.000045  -0.000000  -5.269363  -1.566284   3.743285  16.730407  -0.001536  -0.000685 -14.428102   3.201033   4.467887   0.937947   0.000069   0.000074
 -2.345901   0.906917   4.541676   1.836051  10.375629   0.845963   2.425009  -0.699672  -1.447324  -1.708007  -1.687179   0.502976  -2.009347   0.632469  -0.487216   4.126462  -4.069060   2.765561  16.427881  15.281002  56.618877  -0.001964  51.875271   0.002909   5.099088   6.326242 -26.938120   4.364137   0.076511  -1.959483  15.684833 -16.640024 -57.591122   0.000579 -47.969951   0.000501   5.635115  -8.007814  26.160979 -10.228875   0.718543  -6.260546  21.613180  -0.000930  -0.000591 -12.692743  -3.805677   2.806635  -0.299494   0.000050  -0.000000  -4.837195  -1.535419   3.598567  16.397938  -0.001473  -0.000575 -14.317452   3.173550   4.543850   1.054596   0.000060   0.000059
 -2.344745   0.907136   4.542103   1.616751  10.391351   0.953024   2.313183  -0.715848  -1.477525  -1.585585  -1.709626   0.476336  -1.846140   0.568411  -0.488150   4.136678  -4.090859   2.769334  16.504349  15.226091  56.653906  -0.001595  51.896569   0.002369   5.122688   6.335827 -26.981475   4.383427   0.103969  -1.983134  15.615210 -16.486571 -57.525534   0.000767 -47.887053   0.000678   5.567222  -8.002868  26.275424  -9.866382   0.774166  -6.392925  21.456033  -0.000859  -0.000545 -12.680499  -3.875029   2.796729  -0.286628   0.000049  -0.000000  -4.422618  -1.507230   3.455257  16.090881  -0.001402  -0.000484 -14.215284   3.146932   4.613929   1.161741   0.000058   0.000046
 -2.343600   0.907329   4.542471   1.404891  10.393459   1.056477   2.205815  -0.727099  -1.507468  -1.470961  -1.727756   0.450086  -1.693527   0.508746  -0.489104   4.147682  -4.110750   2.777617  16.576361  15.176287  56.689921  -0.001296  51.915958   0.001932   5.143301   6.340654 -27.007801   4.403651   0.131138  -2.010233  15.551334 -16.343726 -57.467634   0.000876 -47.808973   0.000785   5.498913  -7.992276  26.379674  -9.526589   0.810564  -6.520713  21.313288  -0.000777  -0.000463 -12.669391  -3.955841   2.787433  -0.269448   0.000050  -0.000007  -4.029457  -1.475075   3.314824  15.808363  -0.001324  -0.000392 -14.121797   3.127395   4.678141   1.259943   0.000060   0.000037
 -2.342470   0.907502   4.542779   1.201695  10.387792   1.154598   2.102783  -0.736941  -1.535918  -1.364762  -1.743860   0.425061  -1.551322   0.453078  -0.489944   4.158722  -4.129343   2.788669  16.643800  15.130663  56.725772  -0.001054  51.933888   0.001579   5.162502   6.344268 -27.026032   4.424252   0.157334  -2.039174  15.492594 -16.210868 -57.416145   0.000926 -47.735736   0.000838   5.432330  -7.980345  26.473910  -9.206947   0.841514  -6.643962  21.180156  -0.000701  -0.000382 -12.657299  -4.033963   2.776888  -0.251044   0.000052  -0.000014  -3.659487  -1.442182   3.178694  15.548987  -0.001241  -0.000308 -14.035418   3.112438   4.737318   1.349972   0.000064   0.000029
 -2.341365   0.907549   4.543080   1.005015  10.379142   1.298374   1.997458  -0.747502  -1.606894  -1.266389  -1.759748   0.384254  -1.418091   0.401045  -0.492060   4.172758  -4.149590   2.802166  16.708375  15.089975  56.766757  -0.000863  51.952748   0.001299   5.184889   6.355620 -27.036778   4.446563   0.185313  -2.056180  15.441818 -16.084190 -57.363723   0.000944 -47.667332   0.000858   5.368862  -7.970187  26.564500  -8.882878   0.863027  -6.805845  21.046010  -0.000625  -0.000301 -12.517173  -4.113348   2.734024  -1.254041  -0.000908   0.000664  -3.317359  -1.406952   2.995385  15.330474  -0.001145  -0.000240 -13.967339   3.098567   4.784575   1.338598   0.000048   0.000023
 -2.340294   0.907698   4.543296   0.819533  10.378067   1.379724   1.901848  -0.760243  -1.620037  -1.178320  -1.776937   0.360886  -1.295493   0.352348  -0.494131   4.183880  -4.167421   2.816780  16.768878  15.048750  56.797119  -0.000702  51.965732   0.001062   5.198569   6.351410 -27.049556   4.465369   0.207395  -2.093200  15.390188 -15.969782 -57.323244   0.000930 -47.601850   0.000852   5.304576  -7.953007  26.642366  -8.597321   0.911607  -6.916398  20.940034  -0.000571  -0.000270 -12.545632  -4.164454   2.728472  -1.029889  -0.000584   0.000533  -2.994812  -1.382428   2.876400  15.115595  -0.001058  -0.000192 -13.894164   3.082515   4.834749   1.329782   0.000037   0.000018
 -2.339214   0.907865   4.543460   0.592223  10.318235   1.467777   1.827626  -0.748266  -1.632327  -1.044016  -1.779189   0.323347  -1.155458   0.298460  -0.466947   4.196163  -4.119030   2.859411  16.846407  15.072436  56.814892  -0.000610  51.845599   0.000836   5.242665   6.386096 -27.063420   4.470092   0.221284  -2.205603  15.323994 -15.818467 -57.224370   0.001135 -47.447245   0.001076   5.253720  -7.986468  26.704234  -8.327598   1.000095  -7.016388  20.921925  -0.000467  -0.000218 -12.532666  -4.227801   2.712020  -0.946292  -0.000405   0.000398  -2.607757  -1.339978   2.753439  14.873199  -0.001002  -0.000068 -13.816317   3.106210   4.906623   1.324937   0.000029   0.000015
 -2.338131   0.908022   4.543554   0.364161  10.258157   1.551371   1.761682  -0.740193  -1.645054  -0.906342  -1.780501   0.287434  -1.021184   0.247296  -0.440296   4.213922  -4.069377   2.912988  16.923291  15.098447  56.838796  -0.000565  51.726695   0.000671   5.272429   6.388103 -27.023908   4.475668   0.233993  -2.322317  15.262857 -15.676182 -57.133221   0.001234 -47.296417   0.001204   5.189537  -7.987618  26.753623  -8.075226   1.082454  -7.113249  20.926619  -0.000371  -0.000174 -12.505482  -4.287608   2.692559  -0.917962  -0.000302   0.000308  -2.234595  -1.300312   2.633745  14.651391  -0.000944   0.000026 -13.743472   3.130860   4.974488   1.319626   0.000023   0.000012
 -2.337046   0.908164   4.543580   0.142369  10.201716   1.632053   1.700721  -0.734939  -1.660314  -0.772912  -1.783419   0.253126  -0.895077   0.199482  -0.415607   4.235457  -4.024856   2.971407  16.998240  15.123932  56.867386  -0.000532  51.614382   0.000536   5.296162   6.380377 -26.962796   4.483468   0.246793  -2.436239  15.207241 -15.543865 -57.051515   0.001253 -47.154594   0.001256   5.123414  -7.979749  26.791114  -7.835608   1.160973  -7.210623  20.934655  -0.000292  -0.000139 -12.473582  -4.341948   2.670408  -0.913033  -0.000238   0.000245  -1.883914  -1.263954   2.514728  14.451230  -0.000886   0.000090 -13.675116   3.153512   5.037011   1.313500   0.000017   0.000010
 -2.335960   0.908294   4.543540  -0.071864  10.147193   1.709384   1.643944  -0.731073  -1.677243  -0.645546  -1.787291   0.220177  -0.777124   0.154899  -0.392776   4.259039  -3.985111   3.031450  17.070486  15.148209  56.898188  -0.000502  51.508776   0.000424   5.316749   6.368862 -26.892422   4.492877   0.259698  -2.545923  15.156605 -15.420631 -56.977699   0.001222 -47.021683   0.001254   5.058384  -7.969160  26.819951  -7.608958   1.234718  -7.307810  20.943281  -0.000229  -0.000112 -12.436275  -4.392876   2.647504  -0.925559  -0.000201   0.000200  -1.555455  -1.229733   2.396824  14.270307  -0.000827   0.000133 -13.610353   3.174958   5.094547   1.306571   0.000012   0.000008
 -2.334875   0.908414   4.543437  -0.278444  10.093840   1.783376   1.590774  -0.728130  -1.695555  -0.524748  -1.791679   0.188381  -0.666873   0.113339  -0.371613   4.283463  -3.949412   3.091080  17.139534  15.171098  56.929646  -0.000468  51.409693   0.000329   5.335236   6.355453 -26.818043   4.503309   0.272567  -2.650506  15.110387 -15.305696 -56.910448   0.001161 -46.897244   0.001218   4.995155  -7.957415  26.842640  -7.394739   1.303730  -7.404455  20.951438  -0.000178  -0.000090 -12.393969  -4.440842   2.623870  -0.950959  -0.000182   0.000169  -1.247995  -1.197133   2.280231  14.106652  -0.000769   0.000160 -13.548590   3.195634   5.147549   1.298903   0.000008   0.000006
